<svg preserveAspectRatio="none" overflow="visible" style="display: block;" width="16.3429" height="16.3429" viewBox="0 0 16.3429 16.3429" fill="none" xmlns="http://www.w3.org/2000/svg">
<g id="material-symbols:stadium-outline">
<path id="Vector" d="M2.04299 4.76656V2.04275L4.7668 3.40465L2.04299 4.76656ZM12.2573 4.76656V2.04275L14.9811 3.40465L12.2573 4.76656ZM7.49061 4.0856V1.36179L10.2144 2.7237L7.49061 4.0856ZM7.49061 14.9809C6.62807 14.9582 5.82523 14.8873 5.08208 14.7684C4.33893 14.6495 3.69203 14.499 3.14136 14.3169C2.5907 14.1349 2.15648 13.9249 1.8387 13.687C1.52092 13.4492 1.36203 13.1995 1.36203 12.938V6.80942C1.36203 6.52569 1.5409 6.26193 1.89863 6.01815C2.25635 5.77437 2.74142 5.55873 3.35382 5.37124C3.96623 5.18375 4.6869 5.03621 5.51585 4.92862C6.3448 4.82103 7.23003 4.76701 8.17157 4.76656C9.1131 4.7661 9.99834 4.82013 10.8273 4.92862C11.6562 5.03712 12.3769 5.18466 12.9893 5.37124C13.6017 5.55782 14.087 5.77346 14.4452 6.01815C14.8034 6.26284 14.982 6.52659 14.9811 6.80942V12.938C14.9811 13.199 14.8222 13.4487 14.5044 13.687C14.1867 13.9254 13.7527 14.1353 13.2024 14.3169C12.6522 14.4985 12.0053 14.649 11.2617 14.7684C10.5181 14.8878 9.71506 14.9586 8.85252 14.9809V12.257H7.49061V14.9809ZM8.17157 7.49037C9.27244 7.49037 10.2231 7.425 11.0234 7.29425C11.8237 7.16351 12.462 7.01325 12.9382 6.84346C12.9382 6.78672 12.507 6.65348 11.6444 6.44374C10.7819 6.23401 9.62427 6.12892 8.17157 6.12846C6.71887 6.12801 5.56125 6.2331 4.6987 6.44374C3.83616 6.65439 3.40489 6.78763 3.40489 6.84346C3.88156 7.0137 4.51984 7.16419 5.31973 7.29494C6.11963 7.42568 7.07024 7.49082 8.17157 7.49037ZM6.12871 13.5168V10.8951H10.2144V13.5168C11.1224 13.426 11.8657 13.2928 12.4445 13.1171C13.0234 12.9414 13.4149 12.7852 13.6192 12.6486V8.03513C12.995 8.28481 12.2119 8.48343 11.2699 8.63097C10.3279 8.77851 9.29514 8.85228 8.17157 8.85228C7.04799 8.85228 6.01521 8.77851 5.07323 8.63097C4.13124 8.48343 3.34815 8.28481 2.72394 8.03513V12.6486C2.92823 12.7848 3.31977 12.9409 3.89858 13.1171C4.4774 13.2932 5.22077 13.4265 6.12871 13.5168Z" fill="#5A5A5A"/>
</g>
</svg>
