<svg preserveAspectRatio="none" overflow="visible" style="display: block;" width="18" height="18" viewBox="0 0 18 18" fill="none" xmlns="http://www.w3.org/2000/svg">
<g id="prime:sort-down-fill">
<path id="Vector" d="M3.75 5.8125C3.63882 5.8126 3.53016 5.84564 3.43775 5.90746C3.34534 5.96927 3.27332 6.05708 3.23078 6.15981C3.18825 6.26253 3.17711 6.37555 3.19878 6.4846C3.22044 6.59365 3.27393 6.69383 3.3525 6.7725L8.6025 12.0225C8.70797 12.1278 8.85094 12.187 9 12.187C9.14906 12.187 9.29203 12.1278 9.3975 12.0225L14.6475 6.7725C14.7261 6.69383 14.7796 6.59365 14.8012 6.4846C14.8229 6.37555 14.8117 6.26253 14.7692 6.15981C14.7267 6.05708 14.6547 5.96927 14.5622 5.90746C14.4698 5.84564 14.3612 5.8126 14.25 5.8125H3.75Z" fill="black"/>
</g>
</svg>
